# Blender v2.76 (sub 0) OBJ File: 'house.blend'
# www.blender.org
v -4.977862 -0.001045 7.053262
v -4.977862 3.058158 7.053262
v -4.977862 -0.001045 1.146636
v -4.977862 3.058158 1.146636
v -2.185013 5.177294 1.146636
v -2.185013 5.177294 7.053262
v -2.000000 0.000000 1.146635
v -2.000000 2.000000 1.146635
v -2.000000 0.000000 -2.000000
v -2.000000 2.000000 -2.000000
v 2.000000 2.000000 1.146636
v 2.000000 0.000000 -2.000000
v 2.000000 2.000000 -2.000000
v 0.000000 3.517543 -2.000000
v -0.000000 3.517543 1.146635
v 2.000000 2.000000 1.146636
v 2.000000 2.000000 7.053262
v 2.000000 0.000000 7.053262
vn -1.000000 0.000000 0.000000
vn -0.604500 0.796600 0.000000
vn 0.000000 0.000000 -1.000000
vn 0.000000 0.000000 1.000000
vn 1.000000 0.000000 0.000000
vn 0.604500 0.796600 0.000000
vn 0.000100 -1.000000 -0.000100
vn 0.604900 0.796300 0.000000
vn 0.604700 0.796500 -0.000100
vn 0.000400 -1.000000 0.000000
vn 0.000000 -1.000000 0.000000
s off
f 4//1 3//1 1//1
f 5//2 4//2 2//2
f 10//1 9//1 7//1
f 13//3 12//3 10//3
f 5//3 15//3 8//3
f 17//4 6//4 2//4
f 13//5 17//5 18//5
f 14//2 10//2 8//2
f 13//6 14//6 15//6
f 7//7 18//7 1//7
f 2//1 4//1 1//1
f 6//2 5//2 2//2
f 8//1 10//1 7//1
f 9//3 10//3 12//3
f 14//3 13//3 10//3
f 7//3 3//3 8//3
f 4//3 5//3 8//3
f 8//3 3//3 4//3
f 2//4 1//4 17//4
f 18//4 17//4 1//4
f 12//5 13//5 18//5
f 15//2 14//2 8//2
f 5//8 6//8 15//8
f 17//6 13//6 15//6
f 15//9 6//9 17//9
f 1//10 3//10 7//10
f 7//11 9//11 12//11
f 12//11 18//11 7//11
l 11 16
