# Blender v2.76 (sub 0) OBJ File: 'lumpyTree.blend'
# www.blender.org
v 0.016829 -0.083687 -1.071220
v 0.049648 3.010202 -0.100057
v 0.747740 -0.032045 -0.752278
v 0.983389 -0.013316 0.007795
v 0.721775 -0.062056 0.702090
v 0.024108 -0.070804 0.939963
v -0.757478 -0.039068 0.786246
v -1.042108 -0.054463 -0.013885
v -0.672374 -0.036999 -0.695880
v 0.135112 -0.091703 -1.042863
v 0.312244 -0.099959 -0.997596
v 0.477988 -0.071004 -0.962085
v 0.627488 -0.064194 -0.907994
v 0.376485 2.699981 0.313446
v 0.499358 2.054239 0.628661
v 0.634740 1.549099 0.738212
v 0.791207 0.807464 0.808185
v 0.438639 2.562410 -0.037299
v 0.641732 2.004529 0.096503
v 0.790751 1.428249 -0.027022
v 1.129174 0.830951 0.039559
v 0.099045 0.736562 -1.045900
v -0.007498 1.491271 -0.965396
v -0.007597 1.904959 -0.625285
v 0.018929 2.299194 -0.332634
v 0.761340 -0.012472 -0.563534
v 0.855741 -0.039786 -0.411286
v 0.949417 -0.031263 -0.288179
v 0.976876 -0.021732 -0.146466
v 0.401792 2.551318 -0.296050
v 0.282095 1.943851 -0.501162
v 0.586878 1.443385 -0.571753
v 0.760835 0.822176 -0.752406
v 1.061258 -0.031598 0.172070
v 1.010058 -0.069981 0.342636
v 0.857312 -0.073780 0.447445
v 0.824106 -0.071301 0.608892
v -0.266985 2.575398 -0.291933
v -0.416364 1.943552 -0.446956
v -0.711068 1.626554 -0.718691
v -0.710733 0.825059 -0.788311
v 0.599956 -0.076834 0.838685
v 0.460940 -0.077430 0.922141
v 0.294397 -0.080834 0.931107
v 0.144656 -0.063929 0.973323
v -0.419406 2.602663 -0.002690
v -0.798358 2.153003 0.054147
v -0.955744 1.527991 -0.017760
v -0.931188 0.861812 -0.158221
v -0.158610 -0.036716 0.979906
v -0.341688 -0.029876 1.022541
v -0.502241 -0.039303 0.938258
v -0.655662 -0.043489 0.876320
v -0.279673 2.343579 0.168079
v -0.426973 1.955286 0.373408
v -0.723888 1.466349 0.654204
v -0.740730 0.827158 0.772664
v -0.851346 -0.054403 0.675706
v -0.977501 -0.060037 0.476915
v -1.027737 -0.049852 0.323106
v -1.035113 -0.055809 0.153222
v -0.008082 2.600055 0.463565
v 0.012703 1.842607 0.635838
v 0.026258 1.401971 0.805192
v -0.019458 0.772620 1.068008
v -1.057490 -0.050421 -0.138342
v -1.029496 -0.052722 -0.303457
v -0.928062 -0.044804 -0.482363
v -0.784545 -0.050554 -0.566890
v -0.591847 -0.055536 -0.854816
v -0.449669 -0.061600 -0.967090
v -0.306658 -0.071432 -1.052880
v -0.142405 -0.079900 -1.093392
v 1.184854 0.639965 -0.156109
v 1.012916 0.739875 -0.281429
v 0.950425 1.450786 -0.166754
v 0.736693 0.750424 -0.500239
v 0.968385 1.499166 -0.476889
v 0.587174 1.936759 -0.177940
v -0.229228 0.555019 -1.197204
v -0.260123 0.560013 -0.962133
v -0.146884 1.398564 -1.148719
v -0.427536 0.782784 -0.834954
v -0.394336 1.397761 -0.791760
v -0.168242 1.853725 -0.643062
v 0.762587 0.545329 0.537697
v 0.886940 0.735156 0.484816
v 0.891222 1.416781 0.644970
v 1.119996 0.785471 0.221984
v 1.028515 1.545771 0.370961
v 0.797716 2.249494 0.380525
v 0.210222 0.606745 0.999700
v 0.363720 0.611865 0.965343
v 0.178374 1.295322 0.923622
v 0.496797 0.689644 0.857266
v 0.550955 1.581772 0.869277
v 0.245469 2.218368 0.811875
v -0.694517 0.513649 0.943597
v -0.486731 0.688270 1.139750
v -0.476580 1.252082 0.867641
v -0.285462 0.700639 1.119228
v -0.385151 1.549429 1.045789
v -0.419371 2.179300 0.629337
v -0.947056 0.600668 0.223246
v -1.197284 0.815868 0.333800
v -0.929985 1.381569 0.271658
v -0.983134 0.719551 0.680758
v -0.904323 1.628721 0.552938
v -0.581491 2.020622 0.300181
v 0.505961 0.605211 -0.885314
v 0.516314 0.639272 -1.138419
v 0.406556 1.385757 -1.058908
v 0.195549 0.713523 -1.108948
v 0.432365 1.428534 -0.770033
v 0.265521 1.943515 -0.631245
v -0.826856 0.685955 -0.497785
v -0.902889 0.609238 -0.447742
v -0.777691 1.353254 -0.535550
v -1.175492 0.684581 -0.100302
v -0.808311 1.275297 -0.333040
v -0.689120 2.068693 -0.315628
v 0.677789 -0.036950 -0.822162
v 0.976588 -0.021935 -0.062625
v 0.770766 -0.087260 0.649652
v 0.078017 -0.070259 0.961884
v -0.708280 -0.047896 0.827051
v -1.029039 -0.062420 0.064814
v -0.738803 -0.047519 -0.635473
v -0.050800 -0.081161 -1.078701
v 0.068262 -0.087510 -1.061593
v 0.220564 -0.107059 -1.012256
v 0.394149 -0.099702 -0.966834
v 0.550891 -0.058849 -0.933501
v 0.749512 -0.015508 -0.648420
v 0.813758 -0.029970 -0.495384
v 0.906445 -0.034806 -0.351955
v 0.957841 -0.018421 -0.213813
v 1.016921 -0.030612 0.097188
v 1.033401 -0.049144 0.246120
v 0.924024 -0.062595 0.394668
v 0.846753 -0.075993 0.529578
v 0.659221 -0.067434 0.767469
v 0.521531 -0.071091 0.875483
v 0.378895 -0.070419 0.920513
v 0.211442 -0.068913 0.959810
v -0.070634 -0.047594 0.974275
v -0.259262 -0.037717 0.995456
v -0.425567 -0.032932 0.982261
v -0.580486 -0.050987 0.901648
v -0.806654 -0.043283 0.736978
v -0.912892 -0.060014 0.569459
v -1.007360 -0.051671 0.395296
v -1.020662 -0.066576 0.225842
v -1.053813 -0.046232 -0.071816
v -1.033049 -0.059004 -0.224144
v -0.975456 -0.050172 -0.399441
v -0.850699 -0.043957 -0.521232
v -0.630907 -0.049031 -0.777974
v -0.525713 -0.058425 -0.908354
v -0.369339 -0.077489 -0.999807
v -0.209303 -0.078820 -1.074290
vn -0.593700 -0.094500 0.799100
vn -0.770500 -0.636900 0.023600
vn -0.919900 -0.382300 0.086800
vn -0.121800 0.037400 -0.991800
vn 0.083900 -0.680200 -0.728100
vn 0.132400 -0.662000 -0.737700
vn -0.711800 0.090900 0.696400
vn -0.571900 -0.682200 0.455400
vn -0.642200 -0.469600 0.605900
vn 0.255900 0.183200 0.949200
vn 0.014200 -0.668300 0.743700
vn 0.070700 -0.579900 0.811600
vn 0.817400 0.145200 0.557400
vn 0.335100 -0.803700 0.491700
vn 0.498200 -0.780200 0.378100
vn 0.959300 0.281500 0.020200
vn 0.813700 -0.571300 -0.107000
vn 0.501700 -0.779500 -0.375000
vn -0.626500 0.041600 -0.778300
vn -0.548200 -0.689300 -0.473600
vn -0.611900 -0.763000 -0.208300
vn 0.813400 0.246600 -0.526700
vn 0.633000 -0.736300 -0.238900
vn 0.764200 -0.644100 -0.032900
vn -0.410600 -0.911400 0.027700
vn -0.715200 -0.698900 0.000000
vn -0.058400 -0.837200 0.543700
vn 0.805200 -0.580400 -0.121300
vn 0.727200 -0.685500 -0.035200
vn 0.976300 -0.041100 -0.212600
vn 0.578200 -0.812800 -0.071000
vn 0.678300 -0.727300 -0.104600
vn 0.669300 0.017500 -0.742800
vn 0.566200 -0.800900 -0.194700
vn 0.543500 -0.760500 -0.355400
vn 0.900800 0.017500 -0.433900
vn 0.498800 -0.748200 -0.437500
vn 0.432300 -0.806800 -0.402700
vn 0.950800 0.250100 0.182500
vn 0.885700 0.288200 0.363900
vn 0.853100 0.305900 -0.422500
vn 0.775200 0.321000 -0.544100
vn 0.786200 0.485700 -0.381900
vn 0.840300 0.506100 -0.194200
vn 0.590200 0.257100 -0.765200
vn 0.871700 0.237300 -0.428800
vn 0.575700 0.473200 -0.666800
vn -0.047100 0.974100 -0.221000
vn 0.071400 -0.636700 -0.767800
vn 0.075400 -0.682700 -0.726800
vn -0.450700 0.052800 -0.891100
vn -0.004600 -0.700400 -0.713700
vn -0.170800 -0.771200 -0.613200
vn -0.814100 0.118400 -0.568500
vn -0.444500 -0.538000 -0.716200
vn -0.388700 -0.730700 -0.561200
vn -0.352000 0.088700 -0.931800
vn -0.492600 -0.408700 -0.768300
vn -0.537200 -0.599700 -0.593000
vn 0.502000 0.407800 -0.762700
vn -0.036800 0.265700 -0.963300
vn -0.022100 0.582900 -0.812200
vn -0.460900 0.285300 -0.840300
vn -0.311700 0.569800 -0.760300
vn 0.023300 0.459300 -0.887900
vn -0.640300 0.550400 -0.535800
vn -0.396400 0.396300 -0.828100
vn -0.325800 0.537500 -0.777700
vn 0.790200 -0.462500 0.402000
vn 0.473100 -0.716100 0.513200
vn 0.896200 0.006800 0.443500
vn 0.791600 -0.594100 0.143100
vn 0.683000 -0.094000 0.724300
vn 0.522600 -0.806100 0.277700
vn 0.422900 -0.756300 0.499100
vn 0.948500 0.078000 0.307000
vn 0.523100 -0.781400 0.340200
vn 0.635000 -0.768500 0.078700
vn 0.662800 0.158100 0.731900
vn 0.649200 0.016800 0.760400
vn 0.590700 0.386500 0.708200
vn 0.976400 0.215900 0.001500
vn 0.857000 0.477700 0.193000
vn 0.498100 0.773600 0.391600
vn -0.168600 -0.736600 0.655000
vn 0.239700 0.034600 0.970200
vn 0.035700 -0.537700 0.842400
vn 0.152500 -0.592600 0.790900
vn 0.395200 0.016900 0.918400
vn 0.132700 -0.771500 0.622200
vn 0.107100 -0.646200 0.755600
vn 0.436500 0.008800 0.899700
vn 0.236400 -0.735200 0.635300
vn 0.357600 -0.742800 0.566000
vn 0.045400 0.289900 0.956000
vn -0.279200 0.114200 0.953400
vn -0.191200 0.325600 0.926000
vn 0.557700 0.156700 0.815100
vn -0.020500 0.407600 0.912900
vn -0.378600 0.677600 0.630500
vn -0.456600 -0.552600 0.697200
vn -0.667000 -0.283600 0.688900
vn -0.849300 -0.047500 0.525700
vn -0.221600 -0.770800 0.597200
vn -0.392900 0.053000 0.918000
vn -0.284300 -0.650400 0.704300
vn -0.294700 -0.702700 0.647500
vn 0.180300 0.014100 0.983500
vn -0.044700 -0.643800 0.763800
vn 0.136300 -0.777500 0.613900
vn -0.289000 0.377000 0.879900
vn -0.794800 0.247600 0.554100
vn -0.707400 0.481100 0.517800
vn -0.301200 0.337100 0.891900
vn -0.665800 0.497900 0.555700
vn -0.563300 0.604500 0.563200
vn -0.792700 -0.602300 0.093900
vn -0.863800 -0.495300 0.092500
vn -0.872400 0.034300 -0.487500
vn -0.934400 -0.356100 0.005000
vn -0.956800 0.062400 -0.283700
vn -0.717800 -0.656900 0.230500
vn -0.647600 0.002700 0.762000
vn -0.489100 -0.844000 0.220000
vn -0.544000 -0.757200 0.361600
vn -0.959000 0.207500 -0.192900
vn -0.958800 0.267100 -0.096600
vn -0.856700 0.478100 0.193400
vn -0.692800 0.549300 0.467200
vn -0.404200 0.525200 0.748800
vn -0.622900 0.723400 0.297700
vn 0.685500 -0.689900 -0.232600
vn 0.633500 -0.694000 -0.341900
vn 0.833600 0.111300 -0.541000
vn 0.410400 -0.783900 -0.465800
vn 0.385200 -0.581300 -0.716700
vn 0.187200 -0.639800 -0.745400
vn 0.658100 0.100300 -0.746200
vn 0.393400 -0.507700 -0.766500
vn -0.228500 0.098800 -0.968500
vn -0.207100 0.049600 -0.977100
vn -0.663000 0.115600 -0.739600
vn 0.496300 0.412100 -0.764100
vn -0.501200 -0.775900 -0.383000
vn -0.409300 -0.812300 -0.415500
vn -0.765900 0.007600 -0.642900
vn -0.450800 -0.763300 -0.462800
vn -0.450500 -0.598800 -0.662200
vn -0.712500 0.083800 -0.696700
vn -0.544600 -0.594100 -0.592000
vn -0.626000 -0.675800 -0.389100
vn -0.854900 0.110100 0.506800
vn -0.719400 -0.630300 -0.291800
vn -0.586700 -0.805400 -0.084400
vn -0.968000 0.167700 -0.186700
vn -0.916700 0.204100 -0.343300
vn -0.691900 0.359300 -0.626200
vn 0.075400 -0.937000 -0.341100
vn 0.163800 -0.949200 -0.268600
vn -0.006200 -0.942200 0.334900
vn -0.439500 -0.745600 0.500900
s 1
f 49//1 66//2 154//3
f 22//4 10//5 130//6
f 57//7 58//8 150//9
f 65//10 50//11 146//12
f 17//13 42//14 142//15
f 21//16 34//17 138//18
f 41//19 70//20 158//21
f 33//22 26//23 134//24
f 153//25 127//26 6//27
f 21//16 4//28 123//29
f 74//30 29//31 137//32
f 75//33 28//34 136//35
f 77//36 27//37 135//38
f 29//31 74//30 21//16
f 74//30 20//39 21//16
f 28//34 75//33 74//30
f 75//33 76//40 74//30
f 74//30 76//40 20//39
f 76//40 19//41 20//39
f 27//37 77//36 75//33
f 77//36 78//42 75//33
f 75//33 78//42 76//40
f 78//42 79//43 76//40
f 76//40 79//43 19//41
f 79//43 18//44 19//41
f 26//23 33//22 77//36
f 33//22 32//45 77//36
f 77//36 32//45 78//42
f 32//45 31//46 78//42
f 78//42 31//46 79//43
f 31//46 30//47 79//43
f 79//43 30//47 18//44
f 30//47 2//48 18//44
f 22//4 1//49 129//50
f 80//51 73//52 161//53
f 81//54 72//55 160//56
f 83//57 71//58 159//59
f 73//52 80//51 22//4
f 80//51 23//60 22//4
f 72//55 81//54 80//51
f 81//54 82//61 80//51
f 80//51 82//61 23//60
f 82//61 24//62 23//60
f 71//58 83//57 81//54
f 83//57 84//63 81//54
f 81//54 84//63 82//61
f 84//63 85//64 82//61
f 82//61 85//64 24//62
f 85//64 25//65 24//62
f 70//20 41//19 83//57
f 41//19 40//66 83//57
f 83//57 40//66 84//63
f 40//66 39//67 84//63
f 84//63 39//67 85//64
f 39//67 38//68 85//64
f 85//64 38//68 25//65
f 38//68 2//48 25//65
f 37//69 17//13 5//70
f 86//71 37//69 141//72
f 87//73 36//74 140//75
f 89//76 35//77 139//78
f 37//69 86//71 17//13
f 86//71 16//79 17//13
f 36//74 87//73 86//71
f 87//73 88//80 86//71
f 86//71 88//80 16//79
f 88//80 15//81 16//79
f 35//77 89//76 87//73
f 89//76 90//82 87//73
f 87//73 90//82 88//80
f 90//82 91//83 88//80
f 88//80 91//83 15//81
f 91//83 14//84 15//81
f 34//17 21//16 89//76
f 21//16 20//39 89//76
f 89//76 20//39 90//82
f 20//39 19//41 90//82
f 90//82 19//41 91//83
f 19//41 18//44 91//83
f 91//83 18//44 14//84
f 18//44 2//48 14//84
f 65//10 6//27 125//85
f 92//86 45//87 145//88
f 93//89 44//90 144//91
f 95//92 43//93 143//94
f 45//87 92//86 65//10
f 92//86 64//95 65//10
f 44//90 93//89 92//86
f 93//89 94//96 92//86
f 92//86 94//96 64//95
f 94//96 63//97 64//95
f 43//93 95//92 93//89
f 95//92 96//98 93//89
f 93//89 96//98 94//96
f 96//98 97//99 94//96
f 94//96 97//99 63//97
f 97//99 62//100 63//97
f 42//14 17//13 95//92
f 17//13 16//79 95//92
f 95//92 16//79 96//98
f 16//79 15//81 96//98
f 96//98 15//81 97//99
f 15//81 14//84 97//99
f 97//99 14//84 62//100
f 14//84 2//48 62//100
f 53//101 57//7 7//102
f 98//103 53//101 149//104
f 99//105 52//106 148//107
f 101//108 51//109 147//110
f 53//101 98//103 57//7
f 98//103 56//111 57//7
f 52//106 99//105 98//103
f 99//105 100//112 98//103
f 98//103 100//112 56//111
f 100//112 55//113 56//111
f 51//109 101//108 99//105
f 101//108 102//114 99//105
f 99//105 102//114 100//112
f 102//114 103//115 100//112
f 100//112 103//115 55//113
f 103//115 54//116 55//113
f 50//11 65//10 101//108
f 65//10 64//95 101//108
f 101//108 64//95 102//114
f 64//95 63//97 102//114
f 102//114 63//97 103//115
f 63//97 62//100 103//115
f 103//115 62//100 54//116
f 62//100 2//48 54//116
f 49//1 8//117 127//26
f 60//118 104//119 61//120
f 105//121 60//118 152//122
f 107//123 59//124 151//125
f 61//120 104//119 49//1
f 104//119 48//126 49//1
f 60//118 105//121 104//119
f 105//121 106//127 104//119
f 104//119 106//127 48//126
f 106//127 47//128 48//126
f 59//124 107//123 105//121
f 107//123 108//129 105//121
f 105//121 108//129 106//127
f 108//129 109//130 106//127
f 106//127 109//130 47//128
f 109//130 46//131 47//128
f 58//8 57//7 107//123
f 57//7 56//111 107//123
f 107//123 56//111 108//129
f 56//111 55//113 108//129
f 108//129 55//113 109//130
f 55//113 54//116 109//130
f 109//130 54//116 46//131
f 54//116 2//48 46//131
f 33//22 3//132 122//133
f 110//134 13//135 133//136
f 11//137 111//138 12//139
f 10//5 113//140 11//137
f 13//135 110//134 33//22
f 110//134 32//45 33//22
f 12//139 111//138 110//134
f 111//138 112//141 110//134
f 110//134 112//141 32//45
f 112//141 31//46 32//45
f 11//137 113//140 111//138
f 113//140 114//142 111//138
f 111//138 114//142 112//141
f 114//142 115//143 112//141
f 112//141 115//143 31//46
f 115//143 30//47 31//46
f 10//5 22//4 113//140
f 22//4 23//60 113//140
f 113//140 23//60 114//142
f 23//60 24//62 114//142
f 114//142 24//62 115//143
f 24//62 25//65 115//143
f 115//143 25//65 30//47
f 25//65 2//48 30//47
f 41//19 9//144 128//145
f 116//146 69//147 157//148
f 117//149 68//150 156//151
f 119//152 67//153 155//154
f 69//147 116//146 41//19
f 116//146 40//66 41//19
f 68//150 117//149 116//146
f 117//149 118//155 116//146
f 116//146 118//155 40//66
f 118//155 39//67 40//66
f 67//153 119//152 117//149
f 119//152 120//156 117//149
f 117//149 120//156 118//155
f 120//156 121//157 118//155
f 118//155 121//157 39//67
f 121//157 38//68 39//67
f 66//2 49//1 119//152
f 49//1 48//126 119//152
f 119//152 48//126 120//156
f 48//126 47//128 120//156
f 120//156 47//128 121//157
f 47//128 46//131 121//157
f 121//157 46//131 38//68
f 46//131 2//48 38//68
f 8//117 49//1 154//3
f 1//49 22//4 130//6
f 7//102 57//7 150//9
f 6//27 65//10 146//12
f 5//70 17//13 142//15
f 4//28 21//16 138//18
f 9//144 41//19 158//21
f 3//132 33//22 134//24
f 129//50 1//49 160//56
f 130//6 10//5 160//56
f 131//158 11//137 132//159
f 132//159 12//139 133//136
f 133//136 13//135 122//133
f 122//133 3//132 134//24
f 26//23 135//38 27//37
f 122//133 134//24 132//159
f 132//159 133//136 122//133
f 1//49 130//6 160//56
f 131//158 132//159 26//23
f 27//37 136//35 137//32
f 132//159 134//24 26//23
f 136//35 28//34 137//32
f 131//158 26//23 9//144
f 73//52 129//50 161//53
f 160//56 72//55 161//53
f 161//53 129//50 160//56
f 26//23 6//27 9//144
f 137//32 29//31 123//29
f 138//18 34//17 139//78
f 137//32 123//29 27//37
f 4//28 138//18 140//75
f 139//78 35//77 140//75
f 36//74 141//72 124//160
f 139//78 140//75 138//18
f 27//37 123//29 36//74
f 4//28 140//75 36//74
f 141//72 37//69 124//160
f 124//160 5//70 36//74
f 142//15 42//14 143//94
f 143//94 43//93 144//91
f 44//90 145//88 6//27
f 143//94 144//91 142//15
f 5//70 44//90 36//74
f 4//28 36//74 123//29
f 10//5 9//144 160//56
f 159//59 71//58 160//56
f 10//5 131//158 9//144
f 5//70 142//15 44//90
f 145//88 45//87 125//85
f 142//15 144//91 44//90
f 159//59 160//56 158//21
f 158//21 70//20 159//59
f 69//147 128//145 9//144
f 9//144 158//21 160//56
f 27//37 6//27 26//23
f 145//88 125//85 6//27
f 6//27 146//12 50//11
f 147//110 51//109 148//107
f 6//27 50//11 151//125
f 36//74 44//90 6//27
f 156//151 68//150 157//148
f 27//37 36//74 6//27
f 156//151 157//148 155//154
f 69//147 9//144 6//27
f 50//11 147//110 52//106
f 149//104 53//101 126//161
f 147//110 148//107 52//106
f 52//106 149//104 50//11
f 126//161 7//102 58//8
f 150//9 58//8 7//102
f 151//125 59//124 152//122
f 152//122 60//118 153//25
f 153//25 61//120 127//26
f 8//117 154//3 155//154
f 152//122 153//25 151//125
f 127//26 8//117 69//147
f 155//154 67//153 156//151
f 154//3 66//2 155//154
f 151//125 153//25 6//27
f 126//161 58//8 149//104
f 50//11 149//104 151//125
f 157//148 69//147 155//154
f 8//117 155//154 69//147
f 58//8 151//125 149//104
f 69//147 6//27 127//26
f 29//31 21//16 123//29
f 28//34 74//30 137//32
f 27//37 75//33 136//35
f 26//23 77//36 135//38
f 73//52 22//4 129//50
f 72//55 80//51 161//53
f 71//58 81//54 160//56
f 70//20 83//57 159//59
f 124//160 37//69 5//70
f 36//74 86//71 141//72
f 35//77 87//73 140//75
f 34//17 89//76 139//78
f 45//87 65//10 125//85
f 44//90 92//86 145//88
f 43//93 93//89 144//91
f 42//14 95//92 143//94
f 126//161 53//101 7//102
f 52//106 98//103 149//104
f 51//109 99//105 148//107
f 50//11 101//108 147//110
f 61//120 49//1 127//26
f 153//25 60//118 61//120
f 59//124 105//121 152//122
f 58//8 107//123 151//125
f 13//135 33//22 122//133
f 12//139 110//134 133//136
f 132//159 11//137 12//139
f 131//158 10//5 11//137
f 69//147 41//19 128//145
f 68//150 116//146 157//148
f 67//153 117//149 156//151
f 66//2 119//152 155//154
